<svg id="chubby" width="20" height="20" viewBox="0 0 20 20" 
	xmlns="http://www.w3.org/2000/svg">

<path fill="none" stroke="#000" stroke-width="1.01" d="M13.6,15.8l-9.3,0.7"/>
<path fill="none" stroke="#000" stroke-width="1.01" d="M11.6,5.1c-1.4,0-2.5-0.6-3.9-0.4c-0.2,0-0.5,0.1-0.7,0.1c-0.1,0-0.2,0-0.3-0.1C6.3,4.3,6,3.9,5.7,3.5
	c-0.5-0.7-1.3-1.1-2.1-1C3.3,2.6,1.8,3,2.9,5.1c0.2,0.5,1,2,1.2,2.5l0.8,6.5l8.3-0.4c0,0,0-2.2,0.2-2.2c0.3-0.1,0.6-0.2,0.9-0.3
	c0.8-0.3,1.6-0.7,2.2-1.4c1-1.1,1.7-2.7,0.5-4.1C15.9,4.3,12,5.1,11.6,5.1z"/>
<path fill="#000" stroke="none" d="M9.4,6.2c-0.7,0-1.3,0.6-1.3,1.3c0,0.7,0.6,1.3,1.3,1.3c0.7,0,1.3-0.6,1.3-1.3C10.7,6.7,10.1,6.2,9.4,6.2z"/>
<path fill="#000" stroke="none" d="M16,5.5c-0.4,0.1-0.5,0.9-0.3,1.8C16,8.1,16.6,8.7,17,8.6c0.4-0.1,0.5-0.9,0.3-1.8C17,6,16.4,5.4,16,5.5z"/>
</svg>
