<svg width="20" height="20" viewBox="0 0 20 20" 
	xmlns="http://www.w3.org/2000/svg">
	<path d="M7.4,9.6L6.8,7.8H3.6L3,9.6H1.8l2.8-7.2h1.2l2.7,7.2H7.4z M3.9,7h2.6L5.2,3.4L3.9,7z"/>
	<path d="M15.1,17.3c1.1,0,1.9-0.5,2.2-1.2c0.3-0.7,0-1.4-0.8-1.9l-0.2-0.1l-0.1,0.2c-0.5,1.2-1.5,2.6-3.2,2.8c-0.1,0-0.1,0-0.2,0
		c-1.1,0-1.7-0.8-1.7-1.7c0-1,0.7-1.8,1.9-2.2l0.1,0l0-0.1c0-0.4,0-0.8,0.1-1.2l0-0.2h-1.3v-0.8h1.4l0-0.2c0.1-0.3,0.1-0.6,0.2-0.8
		l0.9,0.3c0,0.1-0.1,0.3-0.1,0.5l0,0.2h1.3v0.8h-1.4l0,0.2c0,0.3,0,0.6-0.1,0.9l0,0.2l0.2,0c0.2,0,0.4,0,0.6,0c0.3,0,0.5,0,0.7,0.1
		l0.2,0l0.1-0.6l0.9,0.2c0,0.1-0.1,0.3-0.1,0.5l0,0.2l0.1,0.1c1.3,0.6,1.9,1.9,1.4,3.1c-0.4,1.1-1.6,1.7-3,1.7V17.3z M12.8,14.3
		c-0.6,0.3-0.9,0.9-0.8,1.4c0.1,0.3,0.4,0.5,0.8,0.5c0.1,0,0.2,0,0.3,0l0.2,0l0-0.2c-0.1-0.5-0.1-1-0.2-1.5l0-0.3L12.8,14.3z
		 M14.8,13.9c-0.2,0-0.4,0-0.6,0l-0.2,0l0,0.2c0,0.4,0.1,0.9,0.1,1.3l0.1,0.4l0.3-0.3c0.3-0.3,0.6-0.8,0.9-1.3l0.1-0.3l-0.3,0
		C15,13.9,14.9,13.9,14.8,13.9z"/>
	<line fill="none" stroke="#000" stroke-width="1.01" x1="17" y1="3" x2="3" y2="17"/>
</svg>
