<svg width="20" height="20" viewBox="0 0 20 20" xmlns="http://www.w3.org/2000/svg">
	<polygon points="13.345 17.946 8.475 12.526 9.215 11.866 13.345 16.446 17.475 11.866 18.215 12.526 13.345 17.946"/>
	<line x1="13.345" y1="2.054" x2="13.345" y2="16.866" fill="none" stroke="#000"/>
	<path d="M2.217,8.557l3.4-4.9a5.412,5.412,0,0,1,.509-.649v-.02a3.781,3.781,0,0,1-.529.03H2.4V2.16H7.354v.65l-3.4,4.907a5.724,5.724,0,0,1-.51.64v.02s.19-.02.53-.02H7.395v.859H2.217Z"/>
	<path d="M6.16,15.687H3.5l-.7,2.029H1.783L4.321,10.66h1.04L7.9,17.716H6.87ZM4.831,11.629s-.16.64-.28,1l-.79,2.238H5.9l-.78-2.238c-.12-.36-.27-1-.27-1Z"/>
</svg>