<svg width="20" height="20" viewBox="0 0 20 20" xmlns="http://www.w3.org/2000/svg">
	<path d="M6.162,7.186H3.5L2.8,9.216H1.785L4.323,2.16h1.04L7.9,9.216H6.871ZM4.832,3.129s-.16.64-.279,1l-.79,2.239H5.9L5.122,4.128c-.12-.359-.27-1-.27-1Z"/>
	<path d="M2.219,17.057l3.4-4.9a5.352,5.352,0,0,1,.509-.65v-.02a3.722,3.722,0,0,1-.529.03H2.4V10.66H7.356v.649l-3.4,4.907a5.792,5.792,0,0,1-.51.64v.02s.189-.02.529-.02H7.4v.859H2.219Z"/>
	<polygon points="13.345 17.946 8.475 12.526 9.215 11.866 13.345 16.446 17.475 11.866 18.215 12.526 13.345 17.946"/>
	<line x1="13.345" y1="2.054" x2="13.345" y2="16.866" fill="none" stroke="#000"/>
</svg>