<svg width="20" height="20" viewBox="0 0 20 20" xmlns="http://www.w3.org/2000/svg">
	<polygon points="13.345 17.946 8.475 12.526 9.215 11.866 13.345 16.446 17.475 11.866 18.215 12.526 13.345 17.946"/>
	<line x1="13.345" y1="2.054" x2="13.345" y2="16.866" fill="none" stroke="#000"/>
	<path d="M3.27,8.356H4.829V3.8c0-.22.01-.44.01-.44h-.02a1.753,1.753,0,0,1-.34.41l-.66.649-.6-.62L4.909,2.16h.879v6.2h1.54v.859H3.27Z"/>
	<path d="M3.01,17.546l.32-.859a2.381,2.381,0,0,0,1.009.239c1.3,0,1.969-1.2,2.119-2.368H6.438a2.008,2.008,0,0,1-1.559.659A2.192,2.192,0,0,1,2.65,12.9,2.223,2.223,0,0,1,4.918,10.54c1.5,0,2.639,1.309,2.639,3.328,0,1.809-.99,3.968-3.179,3.968A3.075,3.075,0,0,1,3.01,17.546ZM6.518,13.4c0-.92-.689-1.949-1.589-1.949a1.308,1.308,0,0,0-1.3,1.449,1.385,1.385,0,0,0,1.449,1.489C5.878,14.388,6.518,13.9,6.518,13.4Z"/>
</svg>