<svg width="20" height="20" viewBox="0 0 20 20" xmlns="http://www.w3.org/2000/svg">
  <polygon points="13.345 17.946 8.475 12.526 9.215 11.866 13.345 16.446 17.475 11.866 18.215 12.526 13.345 17.946"/>
	<line x1="13.345" y1="2.054" x2="13.345" y2="16.866" fill="none" stroke="#000"/>
	<path d="M2.958,9.046l.32-.859a2.381,2.381,0,0,0,1.009.239c1.3,0,1.969-1.2,2.119-2.368H6.386a2.007,2.007,0,0,1-1.559.66A2.193,2.193,0,0,1,2.6,4.4,2.224,2.224,0,0,1,4.867,2.04c1.5,0,2.639,1.31,2.639,3.329,0,1.809-.99,3.968-3.179,3.968A3.075,3.075,0,0,1,2.958,9.046ZM6.466,4.9c0-.92-.689-1.949-1.589-1.949A1.308,1.308,0,0,0,3.578,4.4,1.385,1.385,0,0,0,5.027,5.888C5.826,5.888,6.466,5.4,6.466,4.9Z"/>
	<path d="M3.218,16.856H4.777V12.3c0-.22.01-.439.01-.439h-.02a1.764,1.764,0,0,1-.34.409l-.66.65-.6-.62L4.857,10.66h.879v6.2h1.54v.859H3.218Z"/>
</svg>