<svg width="20" height="20" viewBox="0 0 20 20" 
	xmlns="http://www.w3.org/2000/svg">

<path fill="none" stroke="#000" stroke-miterlimit="10" d="M0,15.87451h4.75433C5.0408,17.204,6.3508,18.04954,7.68029,17.76307
	c0.94589-0.20381,1.68475-0.94268,1.88856-1.88857h0.63141c0.34045,1.3077,1.67654,2.09181,2.98423,1.75136
	c0.85798-0.22337,1.52799-0.89338,1.75136-1.75136l3.64641-0.23678l0.89976-0.58406V12.8753l-0.34728-0.15785
	c0-0.34728-1.67324-8.74507-6.31413-8.74507H0"/>
<path fill="none" stroke="#000" stroke-miterlimit="10" d="M14.27544,7.33328c1.13337,1.08003,1.60095,2.18399,1.93904,3.21802h-4.68695l-0.30751-4.27598
	C12.16938,6.27532,13.14207,6.25325,14.27544,7.33328z"/>
<polyline fill="none" stroke="#000" stroke-miterlimit="10" points="7.39997,3.97237 11.22002,3.0755 11.22002,2.44242 6.75277,1.12349 6.75277,0.64867 3.84827,0.64867"/>
</svg>
