<svg width="20" height="20" viewBox="0 0 20 20" 
	xmlns="http://www.w3.org/2000/svg">
	<path fill="none" stroke="#000" stroke-width="1.01" d="M1.5,8.4c4.2,0,5.5-5,8.9-5c1.4,0,2.5,1.1,2.5,2.4s-1.1,2.5-2.5,2.5C9.7,8.3,9.1,8,8.7,7.6"/>
	<path fill="none" stroke="#000" stroke-width="1.01" d="M12.9,5.7c0.8-0.7,1.6-1.3,2.6-1.3c1.1,0,2,0.8,2,1.9s-0.9,2-2,2c-0.5,0-1-0.2-1.4-0.6"/>
	<path fill="none" stroke="#000" stroke-width="1.01" d="M17.9,13.4c-1.8,0-2.2-1.7-4.1-1.7s-2.3,1.7-4.1,1.7s-2.2-1.7-4.1-1.7s-2.3,1.7-4.1,1.7"/>
	<path fill="none" stroke="#000" stroke-width="1.01" d="M17.9,16.4c-1.8,0-2.2-1.7-4.1-1.7s-2.3,1.7-4.1,1.7s-2.2-1.7-4.1-1.7s-2.3,1.7-4.1,1.7"/>
</svg>
